<svg width="168" height="168" viewBox="0 0 168 168" fill="none" xmlns="http://www.w3.org/2000/svg">
<g opacity="0.1" clip-path="url(#clip0_987_934)">
<path d="M111.516 70.7647C111.054 71.0008 110.519 71.0421 110.027 70.8858L70.5996 58.1158C69.5759 57.7845 69.0131 56.683 69.3444 55.6593L78.0445 28.7793C79.9103 23.0148 83.9057 18.3224 89.2948 15.5688C94.6839 12.8152 100.831 12.3253 106.592 14.1928C112.353 16.0604 117.054 20.0557 119.808 25.4448C122.563 30.8374 123.051 36.981 121.184 42.742L112.485 69.6254C112.326 70.1189 111.978 70.5285 111.516 70.7647ZM73.6595 55.0056L109.377 66.569L117.475 41.5388C119.017 36.7684 118.613 31.6816 116.333 27.2202C114.054 22.7588 110.168 19.4509 105.396 17.9063C100.624 16.3617 95.535 16.7621 91.0702 19.0434C86.6053 21.3248 83.3009 25.2084 81.7563 29.9807L73.6595 55.0056Z" fill="#8F7D6A"/>
<path d="M57.1518 98.5422C56.6897 98.7783 56.1543 98.8196 55.6626 98.6634L28.7809 89.9598C16.8844 86.1093 10.3422 73.3054 14.1926 61.4089C16.0583 55.6357 20.0555 50.9467 25.4446 48.1931C30.8337 45.4395 36.9755 44.9479 42.7418 46.8171L69.6252 55.5155C70.1187 55.6752 70.5249 56.0242 70.761 56.4863C70.9971 56.9484 71.0384 57.4838 70.8822 57.9755L58.1174 97.4047C57.9611 97.8964 57.614 98.3061 57.1518 98.5422ZM27.22 51.6677C22.7551 53.9491 19.4472 57.8345 17.9026 62.6068C14.7183 72.454 20.135 83.055 29.9805 86.2446L55.009 94.3483L66.5706 58.6274L41.5404 50.5289C36.7682 48.9843 31.6814 49.3881 27.22 51.6677Z" fill="#8F7D6A"/>
<path d="M105.128 98.6052C101.324 100.549 95.5324 101.813 88.6977 97.6981C76.7406 90.4959 75.9782 72.5215 75.9541 71.7626C75.9277 70.9304 76.4341 70.1721 77.2063 69.874C77.9855 69.5723 78.867 69.8054 79.4031 70.4429C81.5244 72.9739 85.2369 74.4597 88.4303 74.0462C95.6153 73.1267 102.222 75.0968 106.561 79.4564C110.498 83.4043 111.52 88.9464 111.78 91.1446C111.905 92.2202 111.15 93.1883 110.07 93.3112C108.999 93.4375 108.029 92.6711 107.903 91.6008C107.69 89.8035 106.867 85.2945 103.792 82.2081C98.8552 77.2464 91.752 77.5544 88.923 77.9176C86.0765 78.281 83.0221 77.6201 80.4112 76.1893C81.3708 81.5661 83.937 90.276 90.7121 94.3596C95.1784 97.0464 99.6547 97.2744 103.763 94.9124L103.822 94.8822C104.757 94.4046 105.906 94.7506 106.417 95.6727C106.938 96.6157 106.596 97.8071 105.656 98.3266C105.484 98.4189 105.309 98.5129 105.128 98.6052Z" fill="#8F7D6A"/>
<path d="M119.104 92.494C118.958 92.5686 118.803 92.6258 118.636 92.6587C101.102 96.5217 87.787 86.6963 87.6605 86.5944C86.8066 85.9353 86.6494 84.7099 87.3103 83.8595C87.9747 83.0074 89.1966 82.8519 90.0452 83.5093C90.1647 83.5973 102.257 92.2729 117.795 88.8513C118.848 88.6153 119.891 89.2833 120.116 90.3336C120.314 91.227 119.875 92.0999 119.104 92.494Z" fill="#8F7D6A"/>
<path d="M96.8811 142.011C96.339 142.288 95.7863 142.544 95.2229 142.77C88.8326 145.383 81.9826 143.905 79.3323 143.152C78.2966 142.857 77.6956 141.775 77.9902 140.739C78.2901 139.705 79.3668 139.103 80.4024 139.397C82.6591 140.041 88.4847 141.306 93.7465 139.16C102.207 135.661 105.364 127.072 106.338 123.516C107.365 119.771 109.921 116.327 113.218 114.007C106.568 112.388 94.1469 110.65 85.4125 117.01C79.9211 121.038 77.4868 126.248 78.1748 132.491C78.2905 133.558 77.5189 134.517 76.445 134.645C75.3728 134.759 74.4098 133.989 74.2905 132.915C73.7049 127.602 74.7587 119.982 83.1008 113.866C97.1596 103.537 118.291 111.362 119.185 111.698C119.964 111.988 120.472 112.75 120.444 113.579C120.42 114.415 119.865 115.146 119.076 115.386C114.915 116.667 111.219 120.444 110.098 124.544C107.902 132.554 103.135 138.815 96.8811 142.011Z" fill="#8F7D6A"/>
<path d="M77.3814 153.108C77.0131 153.296 76.5827 153.371 76.1457 153.288C75.0848 153.098 74.3797 152.087 74.5729 151.024C78.5796 128.843 96.3736 118.209 96.549 118.106C97.4396 117.576 98.6815 117.906 99.2097 118.845C99.7379 119.785 99.4115 120.972 98.4703 121.506C98.3071 121.598 82.04 131.627 78.4041 151.722C78.2979 152.346 77.9026 152.842 77.3814 153.108Z" fill="#8F7D6A"/>
<path d="M110.239 49.3558C109.795 49.583 109.263 49.64 108.75 49.477C107.726 49.1456 107.164 48.0442 107.495 47.0204L110.045 39.1402C111.904 33.388 108.739 27.1927 102.988 25.3286C101.965 24.9972 101.402 23.8958 101.733 22.872C102.065 21.8483 103.166 21.2855 104.19 21.6168C111.983 24.142 116.275 32.5436 113.757 40.3415L111.207 48.2218C111.042 48.731 110.684 49.1285 110.239 49.3558Z" fill="#8F7D6A"/>
<path d="M107.614 57.1942C107.172 57.4197 106.646 57.4784 106.135 57.3188C105.11 56.9927 104.54 55.8948 104.861 54.8676L104.978 54.4967C105.309 53.4729 106.405 52.8997 107.429 53.2223C108.454 53.5484 109.024 54.6463 108.703 55.6735L108.586 56.0445C108.418 56.5642 108.062 56.9652 107.614 57.1942Z" fill="#8F7D6A"/>
</g>
<defs>
<clipPath id="clip0_987_934">
<rect width="124.431" height="124.431" fill="white" transform="translate(0 56.812) scale(1.00346) rotate(-27.065)"/>
</clipPath>
</defs>
</svg>
