<svg width="265" height="212" viewBox="0 0 265 212" fill="none" xmlns="http://www.w3.org/2000/svg">
<path d="M261.559 71.5001C255.676 60.4522 242.974 54.4299 230.356 56.7054L227.902 49.8291C221.129 30.8569 200.693 20.3161 182.353 26.3471C164.542 32.2042 154.977 52.086 161.013 70.6747L161.241 70.6002L161.026 70.7125L187.637 145.251C196.143 169.08 184.622 194.491 161.965 201.94C139.309 209.392 113.961 196.074 105.464 172.272L103.159 165.816C108.833 163.951 113.479 157.981 109.497 146.827L106.101 137.314C128.999 122.85 139.487 96.1086 131.05 72.4765L128.235 64.5903L120.409 67.1638L102.671 17.9907C99.361 8.89721 89.8189 3.34124 79.9631 4.76973C75.8466 -0.497913 68.0996 -1.56595 62.6596 2.38466C57.2199 6.33463 56.147 13.8073 60.264 19.0752C64.3805 24.3426 72.1275 25.4108 77.5675 21.4601C80.4803 19.3448 82.2678 16.0896 82.4503 12.5693C87.9554 12.2995 93.0019 15.5658 94.8411 20.5906L112.583 69.7372L104.757 72.3107L107.611 80.3066C111.996 93.5656 106.952 108 95.1626 115.933C88.9274 120.383 81.4096 122.855 73.6411 123.01C59.2698 123.665 46.0843 115.229 41.0904 102.181L38.236 94.1852L26.4971 98.0454L8.94349 48.8749C7.14086 43.7552 9.10312 38.1187 13.7361 35.11C18.2097 40.1872 26.0846 40.8203 31.3254 36.5247C36.5664 32.2289 37.1878 24.6306 32.7143 19.5539C28.2408 14.4772 20.3653 13.8439 15.1248 18.1394C12.2853 20.4673 10.6801 23.9045 10.7511 27.5079C1.92608 32.1406 -2.13965 42.2435 1.11751 51.4484L18.6711 100.619L10.8451 103.192L13.6535 111.059C22.0996 134.718 47.4846 149.671 74.7969 147.609L78.193 157.12C82.1749 168.275 89.6591 170.256 95.333 168.389L97.638 174.845C107.63 202.835 137.693 218.376 164.665 209.506C191.637 200.636 205.445 170.641 195.462 142.678L168.918 68.3207C164.184 53.838 171.434 38.4035 185.058 33.923C199.083 29.3114 214.793 37.6023 220.08 52.414L222.531 59.2789C208.304 66.2911 202.711 83.1322 210.038 96.8942C217.367 110.656 234.839 116.128 249.066 109.115C263.293 102.103 268.886 85.2617 261.559 71.5001ZM71.4135 15.6535C69.2525 16.364 66.8959 15.2467 66.1502 13.1578C65.4046 11.069 66.552 8.79934 68.713 8.08877C70.8739 7.37803 73.2306 8.49555 73.9762 10.5844C74.7219 12.6732 73.5745 14.9429 71.4135 15.6535ZM21.7571 23.5296C23.9181 22.8188 26.2747 23.9363 27.0203 26.0252C27.766 28.114 26.6186 30.3837 24.4576 31.0942C22.2966 31.8048 19.94 30.6875 19.1944 28.5986C18.4487 26.5098 19.5961 24.2401 21.7571 23.5296ZM21.4795 108.486L21.3717 108.183L33.1106 104.323L33.2645 104.754C39.4267 121.098 55.8633 131.724 73.838 130.984C83.326 130.789 92.5068 127.771 100.125 122.34C114.806 112.348 121.009 94.2766 115.437 77.7332L115.283 77.3019L123.109 74.7285L123.217 75.0311C130.729 96.0723 120.56 120.104 99.0248 132.191C93.968 135.027 88.4978 137.121 82.7955 138.401C80.92 138.828 79.0219 139.158 77.1093 139.387C52.3796 142.524 28.9911 129.528 21.4795 108.486ZM92.6324 160.826C89.1108 161.983 86.8291 156.816 86.0189 154.547L83.1535 146.521C83.4802 146.456 83.8065 146.365 84.1342 146.291C84.5404 146.205 84.9425 146.106 85.3459 146.011C87.2534 145.561 89.1577 145.053 91.0413 144.439L91.237 144.374C93.1152 143.756 94.9385 143.034 96.721 142.27C97.1001 142.109 97.5041 141.942 97.8922 141.767C98.1891 141.632 98.506 141.515 98.8017 141.375L101.667 149.402C102.477 151.672 103.976 157.095 100.455 158.252L92.6324 160.826ZM242.54 103.078C231.734 106.631 219.951 101.044 216.222 90.5996C212.493 80.1551 218.231 68.8074 229.037 65.2542C239.841 61.701 251.623 67.2877 255.352 77.7322C259.066 88.1761 253.334 99.514 242.54 103.078Z" fill="#8F7D6A"/>
<path d="M231.737 72.8185C225.253 74.9505 221.811 81.7589 224.049 88.0257C226.286 94.2927 233.355 97.6446 239.839 95.5126C246.321 93.3806 249.763 86.5722 247.527 80.3054C245.289 74.0385 238.22 70.6865 231.737 72.8185ZM237.137 87.9478C234.976 88.6584 232.619 87.541 231.873 85.4522C231.128 83.3634 232.276 81.0937 234.437 80.3831C236.598 79.6726 238.954 80.7899 239.7 82.8788C240.446 84.9676 239.298 87.2373 237.137 87.9478Z" fill="#8F7D6A"/>
</svg>
