<svg width="55" height="54" viewBox="0 0 55 54" fill="none" xmlns="http://www.w3.org/2000/svg">
<g clip-path="url(#clip0_1201_275)">
<path fill-rule="evenodd" clip-rule="evenodd" d="M11.8488 4.385C8.01364 7.00499 4.91411 10.5643 2.84608 14.7231C0.778042 18.8819 -0.189461 23.5014 0.0359341 28.1405C0.261329 32.7797 1.6721 37.2836 4.13356 41.2223C6.59501 45.1611 10.025 48.4031 14.096 50.639C18.1671 52.8749 22.7433 54.0299 27.3877 53.9938C32.0322 53.9577 36.5899 52.7318 40.6257 50.4329C44.6615 48.1341 48.0407 44.8392 50.4407 40.8627C52.8407 36.8862 54.1813 32.3609 54.3346 27.7188C53.6459 31.7479 52.004 35.5541 49.5458 38.8199C47.0875 42.0858 43.8842 44.7167 40.2029 46.4933C36.5216 48.2699 32.4689 49.1407 28.3827 49.0332C24.2965 48.9257 20.2952 47.8429 16.7123 45.8752C13.1295 43.9075 10.069 41.1118 7.78591 37.7212C5.50282 34.3306 4.06332 30.4434 3.58741 26.3836C3.11151 22.3238 3.61299 18.209 5.05006 14.3824C6.48712 10.5557 8.81813 7.12798 11.8488 4.385Z" fill="#8F7D6A"/>
<path fill-rule="evenodd" clip-rule="evenodd" d="M42.2127 41.8676C45.4494 39.657 48.0653 36.6536 49.8108 33.1443C51.5563 29.6349 52.373 25.7367 52.1831 21.8218C51.9932 17.907 50.8029 14.1061 48.7259 10.7822C46.6489 7.45827 43.7545 4.72226 40.3191 2.83537C36.8837 0.948475 33.0219 -0.0262974 29.1026 0.00411557C25.1832 0.0345285 21.3371 1.06911 17.9314 3.00908C14.5257 4.94906 11.6741 7.72967 9.6489 11.0854C7.62373 14.4412 6.49257 18.26 6.36342 22.1774C6.94449 18.7773 8.32994 15.5654 10.4043 12.8095C12.4786 10.0536 15.1817 7.83348 18.2882 6.33427C21.3947 4.83507 24.8146 4.10022 28.2627 4.19099C31.7109 4.28175 35.0874 5.1955 38.1107 6.85606C41.1341 8.51662 43.7166 10.8759 45.6431 13.7371C47.5695 16.5984 48.7841 19.8787 49.1855 23.3046C49.5869 26.7305 49.1634 30.2027 47.9505 33.4318C46.7376 36.6608 44.7703 39.5531 42.2127 41.8676Z" fill="#8F7D6A"/>
<path fill-rule="evenodd" clip-rule="evenodd" d="M16.1268 27.5075L16.1268 32.2808L23.1435 32.2808L23.1435 39.2414L27.8044 39.2414L27.8044 32.2808L34.8238 32.2808L34.8238 27.5075L27.8044 27.5075L27.8044 20.547L23.1435 20.547L23.1435 27.5075L16.1268 27.5075Z" fill="#503217"/>
<path fill-rule="evenodd" clip-rule="evenodd" d="M36.3946 18.9755C33.8686 16.4705 30.5524 14.9185 27.0107 14.5837C23.469 14.2489 19.9207 15.152 16.97 17.1393C14.0194 19.1265 11.8487 22.0751 10.8276 25.4828C9.80647 28.8906 9.99809 32.547 11.3698 35.8294C12.7415 39.1118 15.2085 41.8173 18.3507 43.4853C21.493 45.1532 25.1162 45.6805 28.6035 44.9774C32.0908 44.2742 35.2266 42.3841 37.477 39.6288C39.7273 36.8735 40.9532 33.4235 40.9457 29.866C40.9438 27.8401 40.5407 25.8347 39.7596 23.9655C38.9784 22.0963 37.8348 20.4003 36.3946 18.9755ZM25.4452 16.5018C27.2092 16.4887 28.9578 16.8298 30.5875 17.5049C32.2172 18.18 33.6949 19.1753 34.9329 20.4318C36.1792 21.6723 37.1682 23.1469 37.843 24.7707C38.5178 26.3945 38.8652 28.1356 38.8652 29.8941C38.8652 31.6525 38.5178 33.3937 37.843 35.0175C37.1682 36.6413 36.1792 38.1158 34.9329 39.3564C33.6921 40.6012 32.2178 41.5889 30.5945 42.2628C28.9713 42.9368 27.2309 43.2837 25.4733 43.2837C23.7157 43.2837 21.9754 42.9368 20.3521 42.2628C18.7288 41.5889 17.2545 40.6012 16.0137 39.3564C14.1425 37.4867 12.8672 35.1046 12.3488 32.5108C11.8304 29.9169 12.0921 27.2276 13.1009 24.7824C14.1097 22.3372 15.8203 20.2457 18.0169 18.7719C20.2134 17.2981 22.7974 16.5082 25.4425 16.5018L25.4452 16.5018Z" fill="#503217"/>
</g>
<defs>
<clipPath id="clip0_1201_275">
<rect width="54.2169" height="53.883" fill="white" transform="scale(1.00217)"/>
</clipPath>
</defs>
</svg>
