<svg width="162" height="153" viewBox="0 0 162 153" fill="none" xmlns="http://www.w3.org/2000/svg">
<g opacity="0.15">
<mask id="mask0_891_131" style="mask-type:luminance" maskUnits="userSpaceOnUse" x="0" y="0" width="162" height="153">
<path d="M161.166 78.0398L53.7676 0L0.000664194 74.1416L107.399 152.181L161.166 78.0398Z" fill="white"/>
</mask>
<g mask="url(#mask0_891_131)">
<path d="M37.2485 22.8045C39.104 20.0042 41.6928 17.8812 44.5881 16.4735C49.8761 13.9012 56.9424 14.0217 61.7185 19.4966C64.5042 22.6905 67.1653 26.0225 68.6944 30.108C69.4358 32.0894 70.4781 33.9678 71.4976 35.8318C74.0394 40.4754 75.5444 45.5422 76.9236 50.5686C78.1547 55.059 79.5857 59.5304 80.4373 64.1068C81.0027 67.1413 80.9022 70.3112 80.9725 73.4231C81.0066 74.9084 80.1655 75.689 78.6436 76.0104C78.5055 76.0387 78.3642 76.0715 78.2246 76.0743C72.4135 76.1713 67.258 78.7443 61.8515 80.3848C58.8762 81.2881 55.8716 82.1125 52.8428 82.8172C50.854 83.281 49.6273 82.5072 48.8715 80.5396C47.2455 76.3062 45.7107 72.039 44.062 67.8156C42.7754 64.5213 41.4751 61.2613 40.5538 57.8151C39.8709 55.2635 38.3769 52.9038 37.0779 50.5504C36.1651 48.8971 35.6237 47.2364 35.4675 45.3383C35.1984 42.0907 34.9141 38.8121 34.2187 35.6388C33.1587 30.7933 34.6069 26.6917 37.2485 22.8045ZM53.5758 76.8973C55.97 77.303 57.7805 77.0027 59.5279 76.3703C63.5258 74.9225 67.5097 73.4359 71.481 71.9178C72.1281 71.671 72.6525 71.1221 73.2831 70.8122C75.7247 69.6142 76.3815 67.5124 75.9076 65.0949C75.0931 60.9293 74.4092 56.6879 73.0602 52.6845C70.4414 44.9106 68.1327 36.9603 63.3428 30.1037C63.0199 29.6404 62.7122 29.1349 62.544 28.6021C61.3815 24.9317 58.5023 22.8884 55.4513 20.9933C53.3826 19.7076 51.2044 19.6187 48.8966 20.2346C46.5989 20.849 45.0115 22.4568 43.23 23.8703C39.772 26.6137 38.4571 30.2684 38.8556 34.4201C39.3968 40.0606 40.1784 45.6449 42.7248 50.9091C45.3147 56.2604 47.8843 61.6456 49.7599 67.3302C50.8201 70.5511 52.2604 73.6397 53.5758 76.8973Z" fill="#8F7D6A"/>
<path d="M86.859 78.3381C91.8111 75.522 96.9905 73.1034 102.736 71.6471C107.426 70.4585 112.13 69.6834 116.884 68.9916C124.205 67.9255 131.587 67.399 138.95 67.6216C144.04 67.7755 149.069 69.1546 153.284 72.3172C155.463 73.9519 157.039 76.1868 157.839 78.8587C158.465 80.9498 157.856 82.8421 156.504 84.4189C152.786 88.7626 148.744 92.7989 143.301 94.8969C140.274 96.0632 137.059 96.7696 133.895 97.5456C127.422 99.1315 120.952 100.745 114.43 102.113C109.589 103.127 104.83 104.55 99.8351 104.901C97.5076 105.065 95.9325 104.34 94.8341 102.489C93.3853 100.052 92.0078 97.5657 90.7457 95.0261C89.4198 92.3582 88.3272 89.5732 87.0238 86.8926C85.1278 82.9889 85.0861 83.0096 86.859 78.3381ZM149.856 83.5553C152.123 80.3297 151.634 77.1042 148.96 75.1839C148.162 74.6109 147.273 74.1309 146.365 73.7593C143.176 72.4571 139.882 71.8392 136.401 72.0601C129.474 72.5001 122.556 72.949 115.674 73.9364C109.904 74.7651 104.273 76.1313 98.7066 77.7868C96.823 78.347 94.9916 79.2025 93.2718 80.1637C91.391 81.2162 91.0803 82.4643 91.9301 84.4709C92.6449 86.1607 93.6407 87.7495 94.1935 89.4855C95.1655 92.5286 96.9218 95.0618 98.8091 97.5584C99.9596 99.0802 101.344 99.5382 103.254 99.2716C108.175 98.5882 112.988 97.4576 117.787 96.2144C123.131 94.8282 128.457 93.3449 133.858 92.2199C138.105 91.3343 141.994 89.7636 145.515 87.3214C147.244 86.1207 148.722 84.5534 149.856 83.5553Z" fill="#8F7D6A"/>
<path d="M62.9768 112.218C64.1493 113.038 64.4965 114.747 63.7505 116.03C62.919 117.461 60.1305 117.947 58.8304 116.889C57.6939 115.964 57.5229 114.273 58.4445 113.06C59.5683 111.584 61.5454 111.215 62.9768 112.218Z" fill="#8F7D6A"/>
<path d="M54.6839 94.0074C55.9519 94.8952 56.258 96.4343 55.4323 97.7564C54.5007 99.2461 52.4277 99.5841 50.9563 98.4838C49.9973 97.7692 49.9907 96.0037 50.9393 94.5983C51.7757 93.3588 53.3941 93.1032 54.6839 94.0074Z" fill="#8F7D6A"/>
<path d="M77.6297 110.019C76.0564 108.9 75.602 107.496 76.2229 106.477C76.9179 105.336 78.1796 104.866 79.5335 105.274C79.9357 105.395 80.3359 105.568 80.6912 105.791C81.5901 106.353 82.1461 107.119 81.9898 108.255C81.8331 109.404 80.9372 110.334 79.689 110.363C78.8837 110.382 78.0704 110.1 77.6297 110.019Z" fill="#8F7D6A"/>
<path d="M67.3028 102.026C68.4276 102.846 68.561 104.567 67.5963 105.799C66.6721 106.979 65.1107 107.181 63.8304 106.288C62.5413 105.389 62.2173 103.713 63.1178 102.603C64.1038 101.384 66.0517 101.115 67.3028 102.026Z" fill="#8F7D6A"/>
<path d="M77.4226 93.6799C78.707 92.138 80.6439 91.8256 81.7915 92.9745C82.71 93.8952 82.5936 95.646 81.5382 96.7683C80.3693 98.0097 78.7029 98.1087 77.4222 97.0111C76.4061 96.1398 76.406 94.9011 77.4226 93.6799Z" fill="#8F7D6A"/>
<path d="M79.0358 86.8724C78.2023 88.0737 76.6568 88.2291 75.3398 87.2432C74.1264 86.3349 73.7424 84.8884 74.4745 83.9797C75.6186 82.5581 77.7125 82.1331 78.9547 83.0689C79.9575 83.8243 79.9939 85.4932 79.0358 86.8724Z" fill="#8F7D6A"/>
<path d="M66.6651 92.1106C65.8432 93.2228 64.0076 93.4784 62.8646 92.641C61.9075 91.9393 61.5839 90.1034 62.2561 89.1979C63.0018 88.1971 65.0565 87.7435 66.1076 88.3496C67.2535 89.0115 67.538 90.9317 66.6651 92.1106Z" fill="#8F7D6A"/>
<path d="M74.4741 120.839C73.7354 121.9 72.1672 122.31 71.1654 121.706C69.9631 120.982 69.5983 119.154 70.4395 118.058C71.3159 116.917 72.9262 116.676 74.1695 117.496C75.1588 118.152 75.2957 119.66 74.4741 120.839Z" fill="#8F7D6A"/>
</g>
</g>
</svg>
