<svg width="11" height="11" viewBox="0 0 11 11" fill="none" xmlns="http://www.w3.org/2000/svg">
<path d="M5.49983 10.9997C4.41207 10.9997 3.34873 10.6771 2.44429 10.0728C1.53985 9.46844 0.834921 8.60949 0.418652 7.60453C0.00238307 6.59956 -0.106532 5.49373 0.10568 4.42687C0.317892 3.36001 0.841701 2.38003 1.61087 1.61087C2.38003 0.841701 3.36001 0.317892 4.42687 0.10568C5.49373 -0.106532 6.59956 0.00238291 7.60453 0.418652C8.60949 0.834921 9.46844 1.53985 10.0728 2.44429C10.6771 3.34873 10.9997 4.41207 10.9997 5.49983C10.9981 6.95799 10.4181 8.35596 9.38703 9.38703C8.35596 10.4181 6.95799 10.9981 5.49983 10.9997ZM5.49983 1.09997C4.62962 1.09997 3.77895 1.35802 3.0554 1.84148C2.33185 2.32494 1.7679 3.01211 1.43489 3.81608C1.10187 4.62005 1.01474 5.50471 1.18451 6.3582C1.35428 7.21169 1.77333 7.99567 2.38866 8.611C3.00399 9.22634 3.78797 9.64538 4.64146 9.81515C5.49495 9.98492 6.37962 9.89779 7.18359 9.56478C7.98756 9.23176 8.67472 8.66782 9.15818 7.94426C9.64165 7.22071 9.89969 6.37004 9.89969 5.49983C9.89838 4.33332 9.43441 3.21496 8.60956 2.39011C7.78471 1.56526 6.66635 1.10128 5.49983 1.09997Z" fill="#503217"/>
</svg>
