<svg width="179" height="161" viewBox="0 0 179 161" fill="none" xmlns="http://www.w3.org/2000/svg">
<g opacity="0.1" clip-path="url(#clip0_986_927)">
<path d="M17.6045 61.62C17.2258 62.8201 17.0165 64.0612 17.072 65.3179C17.1972 68.2638 18.7773 71.0156 20.9164 73.0514C26.6331 78.4948 34.6875 79.5392 42.2322 79.5574C52.2675 79.5819 61.791 77.9367 71.4558 75.4739C74.8962 74.597 78.3548 73.7748 81.7624 72.7805C92.2077 69.7285 102.382 64.7747 112.569 60.9209C116.289 59.5133 120.09 58.0742 123.146 55.5323C127.086 52.2544 130.019 44.9012 128.074 39.8547C126.151 34.8677 120.258 31.9749 115.457 30.5229C113.15 29.825 110.763 29.4283 108.374 29.1219C84.6683 26.0916 60.4747 32.0372 38.9673 42.4022C31.2012 46.1446 23.3534 50.8074 19.0923 58.2925C18.493 59.3464 17.9698 60.4644 17.6045 61.62ZM74.8787 70.6778C73.1448 71.1577 71.68 71.6688 70.1737 71.9599C66.1435 72.7375 62.0997 73.4606 58.05 74.1327C52.1172 75.1165 46.1541 75.6568 40.1379 74.9992C36.9472 74.6505 33.753 74.3202 30.5703 73.8958C29.8416 73.7988 29.0312 73.5016 28.4795 73.036C26.8722 71.6782 25.285 70.2724 23.8628 68.7275C22.2321 66.9562 21.0534 63.731 22.9833 60.73C23.7628 59.5189 24.5893 58.3355 25.3099 57.089C26.2125 55.5264 27.2923 54.1024 28.7812 53.1037C31.0784 51.5623 33.3422 49.8836 35.8414 48.7516C41.7039 46.0981 47.6873 43.7088 53.6445 41.2659C57.032 39.8778 60.4288 38.4983 63.8882 37.3081C65.5179 36.7478 67.1805 35.9576 69.1659 36.269C69.3435 36.7929 69.6224 37.2927 69.6686 37.8115C69.8788 40.1308 70.0548 42.4539 70.1854 44.7793C70.3724 48.0937 70.2061 51.4481 71.4842 54.6254C71.6859 55.1277 71.7041 55.7108 71.7717 56.2601C72.2444 60.1197 72.9056 63.9416 74.0982 67.6569C74.368 68.4939 74.5422 69.362 74.8787 70.6778ZM74.5262 35.2736C75.6252 34.1441 76.9513 34.0237 78.283 33.9028C80.6034 33.6929 82.952 33.6333 85.2364 33.2225C89.996 32.3685 94.7624 33.0765 99.5218 32.9579C101.623 32.9055 103.731 33.1099 105.834 33.0825C107.621 33.0603 109.387 33.0601 111.113 33.5998C114.737 34.7341 118.196 36.1155 121.141 38.6723C123.736 40.9257 124.679 43.0209 123.678 46.2462C122.008 51.6361 118.614 55.2395 112.847 56.3041C111.549 56.5427 110.259 56.9633 109.044 57.4835C104.252 59.5361 99.4364 61.5449 94.7356 63.791C90.0048 66.0503 84.9592 67.4203 80.1058 69.3189C79.8245 69.4287 79.4596 69.3283 79.1476 69.3263C75.6537 58.2886 74.6904 46.9547 74.5262 35.2736Z" fill="#8F7D6A"/>
<path d="M145.431 136.548C149.768 125.593 153.747 114.501 157.922 103.485C160.267 97.298 162.671 91.1331 165.235 85.0341C167.577 79.4614 171.646 73.7621 170.808 67.6015C169.989 61.5756 167.523 56.7952 162.199 53.5287C160.329 52.3812 158.365 51.5661 155.935 51.7938C150.804 52.2735 146.909 53.1048 143.032 56.8203C139.437 60.2648 137.063 64.8527 135.116 69.374C131.262 78.3337 128.389 87.689 124.563 96.6607C121.368 104.153 117.513 111.357 114.483 118.92C110.247 129.491 105.509 142.869 116.176 151.517C122.064 156.292 131.406 156.509 137.093 151.512C140.479 148.537 142.335 144.234 144.026 140.055C144.499 138.889 144.966 137.718 145.431 136.548ZM150.96 108.748C151.259 110.632 150.452 112.13 149.864 113.641C147.689 119.223 145.541 124.817 143.238 130.347C141.448 134.645 139.329 138.805 137.574 143.115C136.409 145.977 134.136 147.68 131.869 149.452C131.362 149.85 130.71 150.112 130.083 150.297C127.416 151.087 124.817 150.857 122.291 149.675C120.352 148.766 118.732 147.42 117.209 145.962C114.415 143.288 114.485 143.255 113.597 139.483C113.302 138.229 113.427 137.082 113.707 135.881C113.933 134.914 114.141 133.931 114.219 132.943C114.412 130.482 115.008 128.128 115.949 125.858C118.244 120.323 120.505 114.773 122.881 109.274C123.891 106.934 125.119 104.686 126.312 102.43C126.807 101.495 127.698 101.324 128.563 101.856C135.911 106.371 142.406 108.531 150.96 108.748ZM152.981 103.181C150.574 103.466 148.043 104.332 145.63 104.269C143.526 104.216 141.536 103.356 139.608 102.511C136.883 101.318 134.124 100.102 131.802 98.2449C131.055 97.6469 130.339 96.96 129.967 96.0799C129.125 94.0851 131.174 91.6217 131.691 89.7397C133.287 83.93 135.889 78.511 138.028 72.9137C139.428 69.2508 141.347 65.8766 143.526 62.6683C146.537 58.2321 150.651 55.7569 156.251 56.3348C158.195 56.5359 160.057 57.0875 161.442 58.3958C165.101 61.8503 167.21 66.0264 166.293 71.2095C165.611 75.0609 164.252 78.7319 162.34 82.1256C159.162 87.7652 157.011 93.8339 154.595 99.7958C154.1 101.014 153.813 102.333 152.981 103.181Z" fill="#8F7D6A"/>
</g>
<defs>
<clipPath id="clip0_986_927">
<rect width="147" height="112" fill="white" transform="matrix(-0.921762 -0.388404 -0.388404 0.921762 179 57.0954)"/>
</clipPath>
</defs>
</svg>
