<svg width="140" height="145" viewBox="0 0 140 145" fill="none" xmlns="http://www.w3.org/2000/svg">
<path opacity="0.2" d="M38.0109 134.809C45.0696 140.998 53.1378 145.102 62.4674 144.998C80.7808 144.769 97.1086 131.769 110.311 118.907C118.683 110.73 127.911 102.934 134.106 92.6301C141.974 79.5479 141.058 68.8727 134.851 55.875C128.594 42.7847 120.986 30.5217 112.164 19.3052C105.188 10.4489 95.1276 -0.408386 83.1343 0.0122033C80.0455 0.118249 77.0205 1.13918 74.079 2.26592C50.2951 11.4267 27.4131 28.0376 9.45633 47.2099C-5.6952 63.3901 -0.408383 79.5982 9.7638 96.152C17.1395 108.149 26.1532 124.415 38.0109 134.809Z" fill="#E2DFCF"/>
</svg>
