<svg width="16" height="16" viewBox="0 0 16 16" fill="none" xmlns="http://www.w3.org/2000/svg">
<path d="M6.31934 9.61571C6.27134 9.61571 5.21536 9.61571 4.73538 9.61571C4.47938 9.61571 4.39939 9.51971 4.39939 9.27972C4.39939 8.63973 4.39939 7.98375 4.39939 7.34377C4.39939 7.08778 4.49538 7.00778 4.73538 7.00778L6.31934 7.00778C6.31934 6.95978 6.31934 6.0318 6.31934 5.59981C6.31934 4.95983 6.43133 4.35185 6.75132 3.79186C7.08732 3.21588 7.5673 2.83189 8.17529 2.60789C8.57528 2.4639 8.97527 2.3999 9.40726 2.3999L10.9752 2.3999C11.1992 2.3999 11.2952 2.4959 11.2952 2.71989L11.2952 4.54384C11.2952 4.76784 11.1992 4.86383 10.9752 4.86383C10.5432 4.86383 10.1112 4.86383 9.67925 4.87983C9.24726 4.87983 9.02326 5.08783 9.02326 5.53582C9.00727 6.0158 9.02326 6.47979 9.02326 6.97578L10.8792 6.97578C11.1352 6.97578 11.2312 7.07178 11.2312 7.32777L11.2312 9.26372C11.2312 9.51971 11.1512 9.59971 10.8792 9.59971C10.3032 9.59971 9.07126 9.59971 9.02326 9.59971L9.02326 14.8156C9.02326 15.0876 8.94327 15.1836 8.65527 15.1836C7.98329 15.1836 7.32731 15.1836 6.65533 15.1836C6.41533 15.1836 6.31934 15.0876 6.31934 14.8476C6.31934 13.1676 6.31934 9.66371 6.31934 9.61571Z" fill="#F2F2F2"/>
</svg>
