<svg width="15" height="15" viewBox="0 0 15 15" fill="none" xmlns="http://www.w3.org/2000/svg">
<g clip-path="url(#clip0_1020_33)">
<path fill-rule="evenodd" clip-rule="evenodd" d="M6.58473 1.88055C5.63034 1.99498 4.73272 2.3456 3.97757 2.89894C3.22242 3.45227 2.63494 4.18985 2.27123 5.04126C1.90752 5.89267 1.77971 6.82948 1.9 7.76226C2.0203 8.69504 2.38469 9.59265 2.95837 10.3694C3.53206 11.1461 4.2959 11.7761 5.17697 12.1991C6.05803 12.6221 7.02691 12.8241 7.99111 12.7857C8.95531 12.7473 9.88264 12.4699 10.6846 11.9799C11.4865 11.4899 12.1362 10.8037 12.5718 9.98678C12.0887 10.6445 11.445 11.1741 10.6943 11.5314C9.94361 11.8888 9.1077 12.0636 8.25624 12.0413C7.40479 12.0189 6.56247 11.8001 5.7995 11.403C5.03654 11.0059 4.37504 10.442 3.87015 9.75845C3.36526 9.07485 3.03161 8.29132 2.89702 7.47317C2.76243 6.65503 2.8308 5.82597 3.09642 5.05511C3.36204 4.28426 3.81722 3.59395 4.42401 3.04174C5.03081 2.48952 5.77163 2.09139 6.58473 1.88055Z" fill="#8F7D6A"/>
<path fill-rule="evenodd" clip-rule="evenodd" d="M9.04219 11.3993C9.84759 11.3028 10.6051 11.007 11.2424 10.5401C11.8797 10.0732 12.3755 9.45086 12.6825 8.7324C12.9895 8.01394 13.0974 7.22339 12.9959 6.43624C12.8944 5.64908 12.587 4.8916 12.1029 4.2361C11.6188 3.58061 10.9742 3.049 10.2307 2.69202C9.48717 2.33504 8.66955 2.16461 7.85589 2.197C7.04222 2.22939 6.25968 2.46353 5.58296 2.87706C4.90625 3.29058 4.35797 3.86969 3.99045 4.55908C4.39808 4.00409 4.94127 3.55717 5.57474 3.25558C6.20821 2.95399 6.9136 2.80647 7.63211 2.82532C8.35061 2.84417 9.0614 3.02885 9.70523 3.36395C10.3491 3.69905 10.9073 4.17487 11.3333 4.75174C11.7593 5.3286 12.0408 5.9898 12.1544 6.6802C12.2679 7.3706 12.2102 8.0702 11.986 8.72067C11.7618 9.37114 11.3777 9.95363 10.8656 10.4196C10.3535 10.8855 9.72834 11.2214 9.04219 11.3993Z" fill="#8F7D6A"/>
<path fill-rule="evenodd" clip-rule="evenodd" d="M5.36964 6.41581L4.95158 7.2704L6.27789 7.91924L5.66826 9.16541L6.54926 9.5964L7.15889 8.35023L8.48571 8.99932L8.90378 8.14474L7.57696 7.49565L8.1866 6.24948L7.30559 5.81849L6.69596 7.06466L5.36964 6.41581Z" fill="#503217"/>
<path fill-rule="evenodd" clip-rule="evenodd" d="M9.9464 6.76278C9.68832 6.08073 9.19742 5.49621 8.55729 5.10877C7.91715 4.72133 7.16736 4.55491 6.43556 4.63784C5.70376 4.72078 5.03521 5.04794 4.54373 5.56363C4.05225 6.07932 3.76822 6.75165 3.74002 7.46616C3.71181 8.18066 3.94117 8.89316 4.38903 9.48235C4.83689 10.0715 5.47558 10.501 6.19634 10.6976C6.9171 10.8942 7.67538 10.8457 8.34207 10.5605C9.00876 10.2753 9.54264 9.771 9.85282 9.1334C10.0299 8.77053 10.1293 8.37421 10.1454 7.96732C10.1615 7.56044 10.0938 7.15105 9.9464 6.76278ZM8.09338 5.30742C8.42795 5.46819 8.7286 5.69096 8.97753 5.96252C9.22645 6.23408 9.41859 6.54891 9.54255 6.88836C9.66948 7.2257 9.72727 7.58114 9.7126 7.93426C9.69793 8.28738 9.6111 8.63122 9.45708 8.94604C9.30307 9.26087 9.08491 9.54047 8.81514 9.76878C8.54536 9.9971 8.22928 10.1696 7.88506 10.2765C7.54149 10.3846 7.17631 10.4251 6.81045 10.3957C6.44458 10.3662 6.08524 10.2674 5.75301 10.1049C5.42078 9.94236 5.12221 9.71932 4.8744 9.44856C4.62659 9.17779 4.43442 8.86463 4.30892 8.52703C4.11897 8.01927 4.08655 7.47487 4.21573 6.96254C4.34492 6.45021 4.62993 5.99294 5.03478 5.64844C5.43963 5.30395 5.94616 5.08768 6.49044 5.02694C7.03471 4.9662 7.59232 5.06371 8.09287 5.30717L8.09338 5.30742Z" fill="#503217"/>
</g>
<defs>
<clipPath id="clip0_1020_33">
<rect width="10.9914" height="10.3465" fill="white" transform="translate(4.72978) scale(1.04023) rotate(26.0682)"/>
</clipPath>
</defs>
</svg>
