<svg width="14" height="11" viewBox="0 0 14 11" fill="none" xmlns="http://www.w3.org/2000/svg">
<path d="M13.5175 1.30106C13.0106 1.52072 12.4868 1.67279 11.9292 1.74038C12.5037 1.40244 12.943 0.861741 13.1458 0.202763C12.6051 0.523804 12.0137 0.743463 11.3885 0.878638C10.8816 0.337938 10.155 -1.27351e-07 9.36088 -1.17392e-07C7.82326 -9.81089e-08 6.58979 1.25037 6.58979 2.77109C6.58979 2.99075 6.60669 3.19351 6.65738 3.39627C4.3594 3.29489 2.33177 2.1797 0.963123 0.506907C-0.0168968 2.26418 1.0814 3.71732 1.80797 4.20733C1.36865 4.20733 0.929329 4.07215 0.557598 3.86939C0.557598 5.23804 1.52072 6.37013 2.77109 6.62358C2.50074 6.70807 1.89245 6.75876 1.52072 6.67427C1.87556 7.77257 2.90627 8.58362 4.10595 8.60052C3.15972 9.34398 1.77417 9.93537 1.22265e-07 9.74951C1.23347 10.5437 2.68661 10.9999 4.25802 10.9999C9.36088 10.9999 12.132 6.77565 12.132 3.12592C12.132 3.00765 12.132 2.88937 12.1151 2.77109C12.6896 2.34867 13.1627 1.85866 13.5175 1.30106Z" fill="#F2F2F2"/>
</svg>
