<svg width="249" height="242" viewBox="0 0 249 242" fill="none" xmlns="http://www.w3.org/2000/svg">
<g opacity="0.1">
<path d="M48.6992 215.138C48.2531 216.924 48.1332 218.788 48.3465 220.624C48.5598 222.46 49.102 224.233 49.9423 225.84C50.7825 227.447 51.9043 228.858 53.2436 229.991C54.5828 231.125 56.1134 231.959 57.7478 232.447L88.07 241.496C89.1843 241.829 90.3342 241.999 91.4895 242C94.6117 241.992 97.6255 240.747 99.9722 238.497C102.319 236.247 103.839 233.144 104.252 229.763C104.665 226.382 103.942 222.952 102.216 220.109C100.491 217.266 97.8814 215.202 94.8702 214.3L79.7111 209.778L64.552 205.255C61.2503 204.275 57.7278 204.765 54.7563 206.618C51.7847 208.471 49.6066 211.535 48.6992 215.138ZM93.7888 218.602C96.0286 219.293 97.9279 220.922 99.0733 223.135C100.219 225.348 100.517 227.966 99.9039 230.418C99.2906 232.871 97.8152 234.959 95.7989 236.229C93.7827 237.499 91.389 237.846 89.1391 237.197L75.9468 233.26L80.5945 214.666L93.7888 218.602ZM63.4645 209.553L76.6568 213.489L72.0193 232.085L58.827 228.149C57.7094 227.816 56.6628 227.245 55.7469 226.47C54.8311 225.694 54.0641 224.73 53.4896 223.63C52.915 222.531 52.5443 221.319 52.3985 220.064C52.2528 218.808 52.3348 217.533 52.64 216.312C52.9451 215.091 53.4675 213.948 54.1771 212.947C54.8868 211.947 55.7699 211.108 56.776 210.481C57.7821 209.853 58.8915 209.448 60.0409 209.289C61.1902 209.13 62.3571 209.219 63.4747 209.553H63.4645Z" fill="#8F7D6A"/>
<path d="M76.677 185.734H108.109C111.531 185.734 114.813 184.249 117.233 181.605C119.652 178.961 121.012 175.376 121.012 171.638C121.012 167.899 119.652 164.314 117.233 161.67C114.813 159.027 111.531 157.541 108.109 157.541H76.677C73.255 157.541 69.9732 159.027 67.5535 161.67C65.1338 164.314 63.7744 167.899 63.7744 171.638C63.7744 175.376 65.1338 178.961 67.5535 181.605C69.9732 184.249 73.255 185.734 76.677 185.734ZM116.933 171.638C116.931 174.193 116 176.643 114.346 178.45C112.691 180.257 110.448 181.273 108.109 181.276H94.4395V162.011H108.109C110.447 162.013 112.688 163.028 114.342 164.832C115.996 166.637 116.928 169.084 116.933 171.638ZM76.677 162.011H90.3467V181.287H76.677C74.3373 181.287 72.0933 180.271 70.4389 178.464C68.7844 176.656 67.8549 174.205 67.8549 171.649C67.8549 169.093 68.7844 166.641 70.4389 164.834C72.0933 163.026 74.3373 162.011 76.677 162.011Z" fill="#8F7D6A"/>
<path d="M49.9695 162.234C49.6675 162.038 49.3574 161.864 49.0453 161.696C48.9677 158.269 47.7449 154.99 45.6074 152.48L24.195 127.312C21.8625 124.577 18.6311 122.966 15.2116 122.834C11.7921 122.702 8.46465 124.06 5.9612 126.608C3.45776 129.156 1.98342 132.686 1.86251 136.422C1.7416 140.158 2.98403 143.793 5.31648 146.528L21.7303 165.8L9.72955 169.144C8.08714 169.599 6.5429 170.403 5.185 171.51C3.8271 172.618 2.68213 174.006 1.81547 175.597C0.0651681 178.81 -0.445283 182.651 0.396412 186.274C1.23811 189.898 3.363 193.008 6.30364 194.921C9.24428 196.833 12.7598 197.39 16.0768 196.471L46.5439 188.025C49.0213 187.342 51.2573 185.871 52.9686 183.798C54.6798 181.725 55.7892 179.144 56.1561 176.382C56.523 173.619 56.1309 170.8 55.0295 168.281C53.9281 165.762 52.167 163.658 49.9695 162.234ZM44.7934 160.343C43.2548 160.154 41.6976 160.269 40.1967 160.685L26.2413 164.552L20.4001 157.689L33.3149 144.573L42.6266 155.522C43.7579 156.87 44.5101 158.545 44.7934 160.348V160.343ZM8.75023 129.855C10.4826 128.158 12.7508 127.261 15.0764 127.355C17.402 127.449 19.6033 128.526 21.2162 130.359L30.5279 141.306L17.6151 154.432L8.30546 143.492C6.71586 141.616 5.87042 139.129 5.95375 136.574C6.03709 134.019 7.04243 131.603 8.75023 129.855ZM15.075 192.14C12.807 192.769 10.4032 192.387 8.39251 191.08C6.38184 189.772 4.92895 187.646 4.35349 185.168C3.77802 182.69 4.1271 180.064 5.32394 177.867C6.52078 175.67 8.46734 174.083 10.7354 173.454L23.997 169.779L28.3367 188.464L15.075 192.14ZM50.9529 179.281C50.3632 180.371 49.5812 181.323 48.6525 182.08C47.7237 182.838 46.6665 183.386 45.5421 183.694L32.2805 187.368L27.949 168.684L41.2107 165.009C41.9248 164.81 42.6588 164.709 43.3958 164.708C44.9532 164.712 46.482 165.166 47.827 166.024C49.1719 166.882 50.285 168.113 51.0534 169.593C51.8217 171.073 52.2179 172.749 52.2017 174.451C52.1854 176.152 51.7574 177.819 50.9611 179.281H50.9529Z" fill="#8F7D6A"/>
<path d="M205.452 116.214L225.4 107.382C229.739 105.468 233.564 102.385 236.52 98.4212C239.476 94.4574 241.466 89.7412 242.305 84.7115C250.509 36.6991 224.884 13.4017 208.876 3.79923C205.32 1.65304 201.378 0.381475 197.325 0.0734645C193.272 -0.234546 189.207 0.428437 185.413 2.01605L83.4736 44.7792C69.3591 50.6436 66.1314 79.4109 76.0675 109.337L53.1207 128.723C50.4136 131.01 48.6489 134.378 48.215 138.087C48.0002 139.923 48.1185 141.788 48.5633 143.574C49.008 145.361 49.7705 147.034 50.8071 148.498C51.8437 149.963 53.1342 151.19 54.6049 152.109C56.0756 153.029 57.6976 153.623 59.3785 153.858C62.7731 154.332 66.2011 153.313 68.9082 151.026L88.3416 134.605C96.9903 147.469 106.861 154.666 115.491 154.666C117.383 154.675 119.261 154.308 121.033 153.583L121.067 153.567L142.816 143.98V160.869C142.816 174.165 170.156 181.34 195.863 181.34C221.57 181.34 248.91 174.165 248.91 160.869V140.264C248.91 128.074 230.468 118.24 205.452 116.214ZM186.886 6.17534C190.126 4.8177 193.598 4.2503 197.06 4.51289C200.521 4.77549 203.888 5.86172 206.925 7.6955C221.966 16.7274 246.039 38.6405 238.306 83.8956C237.59 88.1892 235.892 92.2152 233.37 95.5995C230.848 98.9837 227.583 101.616 223.88 103.252L195.465 115.828C166.724 115.922 144.1 126.041 142.876 139.146L129.963 144.847C136.339 132.775 136.084 111.158 128.274 88.4784C120.345 65.4864 107.224 48.9228 94.997 44.7234L186.886 6.17534ZM108.579 60.8256C108.638 60.8658 108.705 60.8702 108.767 60.9036C112.101 65.0182 115.051 69.4856 117.574 74.2397L108.918 86.557L98.0716 77.4672C96.2473 75.8692 95.0624 73.5596 94.7666 71.0255C94.4709 68.4914 95.0875 65.9308 96.4863 63.8838C97.8037 61.8369 99.7661 60.3931 101.997 59.8288C104.229 59.2645 106.572 59.6194 108.579 60.8256ZM119.731 78.4926C121.517 82.2361 123.094 86.0941 124.454 90.0454C125.647 93.5068 126.673 97.0342 127.527 100.613C125.882 100.276 124.337 99.5061 123.026 98.3707L112.168 89.2697L119.731 78.4926ZM129.781 130.698L118.368 131.716C116.043 131.901 113.744 131.08 111.969 129.428C110.194 127.777 109.085 125.428 108.882 122.891C108.678 120.353 109.397 117.83 110.883 115.867C112.369 113.904 114.502 112.659 116.822 112.4L129.485 111.109C130.418 117.592 130.517 124.185 129.781 130.698ZM80.4581 135.633L69.6652 120.382L80.4785 111.243C82.0164 109.935 83.9097 109.225 85.8587 109.226C86.238 109.226 86.6169 109.253 86.993 109.306C88.7245 109.547 90.3517 110.343 91.6689 111.594C92.9861 112.845 93.934 114.495 94.3927 116.334C94.8513 118.174 94.8002 120.121 94.2457 121.929C93.6912 123.737 92.6582 125.325 91.2776 126.492L80.4581 135.633ZM66.411 147.5C65.4944 148.274 64.4472 148.843 63.3292 149.176C62.2111 149.508 61.0442 149.596 59.895 149.435C58.7457 149.275 57.6367 148.868 56.6312 148.239C55.6257 147.611 54.7434 146.771 54.0348 145.77C53.3261 144.769 52.8049 143.625 52.5009 142.403C52.197 141.182 52.1162 139.907 52.2632 138.651C52.4102 137.396 52.7822 136.184 53.3578 135.086C53.9334 133.987 54.7014 133.023 55.618 132.249L66.4314 123.11L77.2263 138.359L66.411 147.5ZM91.5775 131.872L93.7728 130.018C96.3669 127.841 98.1067 124.668 98.6397 121.142C99.1727 117.616 98.4592 114 96.6436 111.028C94.828 108.055 92.0461 105.947 88.8613 105.131C85.6765 104.315 82.327 104.852 79.491 106.634C70.9077 79.83 73.2499 53.7486 84.9365 48.9384C90.2778 46.7407 96.8128 49.2371 103.25 55.0637C101.258 55.2622 99.3268 55.9213 97.5856 56.9973C95.8444 58.0734 94.3326 59.5417 93.1505 61.3049C91.1381 64.2909 90.2662 68.0143 90.7188 71.6894C91.1714 75.3644 92.9131 78.7036 95.5764 81.0024L120.523 101.91C122.835 103.867 125.621 105.044 128.537 105.296C128.629 105.769 128.708 106.235 128.792 106.705L116.436 107.964C113.123 108.305 110.057 110.025 107.874 112.769C105.691 115.512 104.557 119.068 104.708 122.7C104.86 126.331 106.284 129.76 108.687 132.275C111.089 134.791 114.286 136.199 117.613 136.21C117.97 136.21 118.331 136.192 118.692 136.161L128.975 135.243C127.343 142.375 124.197 147.502 119.621 149.408L119.578 149.426C111.762 152.649 100.899 145.761 91.5775 131.872ZM244.829 160.869C244.829 168.448 224.72 176.882 195.863 176.882C167.006 176.882 146.897 168.443 146.897 160.869V149.836C154.829 158.651 173.528 164.705 195.863 164.705C218.198 164.705 236.897 158.651 244.829 149.836V160.869ZM195.863 160.247C166.573 160.247 146.897 149.916 146.897 140.264C146.897 130.613 166.561 120.291 195.834 120.284H195.865H195.888C225.163 120.284 244.829 130.62 244.829 140.267C244.829 149.914 225.153 160.247 195.863 160.247Z" fill="#8F7D6A"/>
</g>
</svg>
