<svg width="65" height="65" viewBox="0 0 65 65" fill="none" xmlns="http://www.w3.org/2000/svg">
<g opacity="0.5" clip-path="url(#clip0_994_1080)">
<path d="M43.7762 28.0403C43.5864 28.1206 43.3731 28.1217 43.1828 28.0458L27.9285 21.863C27.5324 21.7026 27.3409 21.2502 27.5013 20.8541L31.7141 10.4542C32.6176 8.22394 34.3341 6.47906 36.5474 5.54193C38.7607 4.60481 41.2097 4.58601 43.4385 5.49007C45.6674 6.39413 47.4157 8.11082 48.3529 10.3241C49.2906 12.5389 49.3088 14.9864 48.4047 17.2153L44.1925 27.6166C44.1152 27.8076 43.966 27.9599 43.7762 28.0403ZM29.2293 20.7182L43.0483 26.3173L46.9701 16.633C47.7166 14.7872 47.7016 12.7606 46.9258 10.9283C46.15 9.09604 44.7052 7.67491 42.8588 6.92697C41.0125 6.17903 38.9853 6.19255 37.1516 6.96895C35.3179 7.74536 33.8981 9.18957 33.1502 11.036L29.2293 20.7182Z" fill="#8F7D6A"/>
<path d="M21.45 37.494C21.2602 37.5744 21.0469 37.5755 20.8566 37.4996L10.4561 33.2853C5.85333 31.4208 3.62683 26.1622 5.49133 21.5595C6.395 19.3257 8.11209 17.5823 10.3254 16.6452C12.5387 15.708 14.9857 15.6884 17.2166 16.5933L27.6179 20.8055C27.8088 20.8828 27.9598 21.0327 28.0401 21.2225C28.1205 21.4123 28.1216 21.6255 28.0457 21.8158L21.8649 37.071C21.789 37.2613 21.6398 37.4137 21.45 37.494ZM10.9296 18.0722C9.09588 18.8486 7.67475 20.2934 6.92681 22.1398C5.38463 25.9498 7.22807 30.3036 11.0372 31.8478L20.7207 35.7716L26.3191 21.9511L16.6348 18.0294C14.7885 17.2814 12.7619 17.2964 10.9296 18.0722Z" fill="#8F7D6A"/>
<path d="M40.4539 38.8871C38.8913 39.5487 36.5612 39.884 33.9711 38.0592C29.4399 34.8653 29.6504 27.7234 29.6625 27.4221C29.6757 27.0917 29.898 26.8057 30.2123 26.7096C30.5296 26.6123 30.8722 26.7298 31.0663 26.9976C31.8345 28.0607 33.2628 28.7552 34.5395 28.6824C37.412 28.523 39.9728 29.4918 41.5676 31.3425C43.0143 33.0186 43.2612 35.2432 43.3015 36.1214C43.3202 36.551 42.9938 36.913 42.5622 36.9309C42.1346 36.9504 41.7722 36.6191 41.7527 36.1915C41.7196 35.4735 41.5222 33.6639 40.3919 32.3536C38.5779 30.2473 35.7554 30.1668 34.6243 30.2301C33.4864 30.2928 32.2953 29.9439 31.3018 29.3027C31.5287 31.46 32.2969 34.9834 34.8642 36.7942C36.5569 37.9859 38.3236 38.2038 40.0183 37.3853L40.0425 37.375C40.4264 37.2125 40.8719 37.3823 41.0479 37.7622C41.2275 38.1506 41.058 38.6128 40.671 38.7918C40.6003 38.8234 40.5281 38.8557 40.4539 38.8871Z" fill="#8F7D6A"/>
<path d="M46.1628 36.865C46.1029 36.8903 46.0399 36.9086 45.9727 36.9168C38.9169 37.9471 33.9226 33.6754 33.8754 33.6314C33.556 33.3459 33.5286 32.856 33.8147 32.538C34.1022 32.2194 34.5906 32.1926 34.9081 32.4773C34.9529 32.5155 39.4955 36.297 45.7481 35.3846C46.1722 35.3212 46.5661 35.6155 46.6255 36.038C46.6785 36.3976 46.4796 36.7308 46.1628 36.865Z" fill="#8F7D6A"/>
<path d="M35.9483 55.8462C35.7256 55.9405 35.4994 56.0262 35.2697 56.0999C32.6639 56.9524 29.9925 56.1718 28.9641 55.7978C28.5623 55.6516 28.355 55.2058 28.5013 54.804C28.6495 54.403 29.0932 54.1949 29.4951 54.3411C30.3707 54.6604 32.6423 55.3275 34.7878 54.6278C38.2392 53.4828 39.7347 50.1706 40.2219 48.7896C40.7354 47.3353 41.8461 46.0438 43.2184 45.2188C40.63 44.3878 35.7594 43.3453 32.1181 45.6157C29.8279 47.0549 28.7151 49.049 28.8096 51.5417C28.825 51.9676 28.492 52.3257 28.0629 52.3458C27.635 52.3604 27.2754 52.028 27.2588 51.5992C27.1783 49.4775 27.813 46.4893 31.292 44.3045C37.1556 40.6135 45.3031 44.3159 45.648 44.4745C45.9483 44.6115 46.1276 44.9277 46.093 45.2554C46.0596 45.5859 45.8187 45.8595 45.4995 45.9324C43.8146 46.321 42.2428 47.7119 41.6817 49.3041C40.5837 52.4144 38.5169 54.7587 35.9483 55.8462Z" fill="#8F7D6A"/>
<path d="M27.9085 59.6858C27.7573 59.7498 27.5847 59.7674 27.4139 59.7219C26.9991 59.6165 26.7486 59.1958 26.8554 58.7803C29.0751 50.1078 36.4271 46.4026 36.4994 46.3669C36.8673 46.1826 37.3499 46.3485 37.5323 46.7357C37.7148 47.1229 37.5516 47.5841 37.1636 47.7686C37.0963 47.8004 30.3664 51.3096 28.3532 59.166C28.2933 59.4101 28.1226 59.5951 27.9085 59.6858Z" fill="#8F7D6A"/>
<path d="M43.8817 19.524C43.699 19.6014 43.4868 19.6088 43.2883 19.5296C42.8922 19.3691 42.7007 18.9168 42.8611 18.5207L44.0962 15.4718C44.9966 13.2462 43.9193 10.7018 41.6945 9.7994C41.2984 9.63895 41.1068 9.18658 41.2673 8.79049C41.4277 8.39441 41.8801 8.20287 42.2762 8.36332C45.2911 9.58581 46.7521 13.0363 45.5323 16.0535L44.2972 19.1024C44.2174 19.2994 44.0643 19.4467 43.8817 19.524Z" fill="#8F7D6A"/>
<path d="M42.6199 22.5546C42.4387 22.6313 42.2284 22.6396 42.0306 22.5618C41.6337 22.4034 41.4393 21.9522 41.5957 21.5545L41.6527 21.4108C41.8131 21.0148 42.2637 20.8189 42.66 20.9759C43.0569 21.1344 43.2513 21.5855 43.0949 21.9832L43.0379 22.1269C42.9564 22.3279 42.804 22.4766 42.6199 22.5546Z" fill="#8F7D6A"/>
</g>
<defs>
<clipPath id="clip0_994_1080">
<rect width="49.175" height="49.175" fill="white" transform="translate(0 19.3344) scale(1.00842) rotate(-22.948)"/>
</clipPath>
</defs>
</svg>
