<svg width="91" height="86" viewBox="0 0 91 86" fill="none" xmlns="http://www.w3.org/2000/svg">
<path d="M35.2319 81.2394C40.6466 85.835 46.9297 87.6412 54.6549 82.2246C64.6177 75.1726 73.0943 66.2276 79.6009 55.9003C83.9105 49.11 88.0231 41.8877 90.07 34.05C92.3035 25.4811 90.6987 19.2197 83.224 13.8537C70.4125 4.64765 50.5769 3.73492 35.3243 3.96264C25.0216 4.11537 11.4071 6.53 7.00675 17.2911C4.88517 22.4698 6.01468 28.3777 7.57658 33.7447C12.4464 50.6177 21.5832 69.6579 35.2319 81.2394Z" fill="#EBE9E0"/>
<path d="M2.36311 13.73C4.66964 8.48806 9.19364 5.33171 14.2951 3.4833C19.5519 1.57861 25.5219 1.02148 30.6137 1.00719C38.0902 0.98543 46.7378 1.25378 55.1175 2.67737C63.4893 4.09966 71.668 6.68718 78.1595 11.3541L78.8571 11.8703C82.2645 14.4672 84.4548 17.3134 85.538 20.5707C86.6903 24.0357 86.548 27.8406 85.4778 32.0971L85.4781 32.0984C83.5266 39.8441 79.5146 46.9174 75.3701 53.4722L75.3714 53.472C69.057 63.5341 60.7777 72.2157 51.0067 79.021L51.0028 79.023C47.0962 81.7175 43.4406 82.6471 40.0061 82.2367C36.5951 81.829 33.5375 80.1155 30.7769 77.7808C17.5117 66.5648 8.43251 48.574 3.34592 32.4416L2.86573 30.8857C1.27416 25.6524 -0.00943866 19.599 2.14701 14.2442L2.36311 13.73Z" stroke="#EBE9E0" stroke-width="2"/>
</svg>
