<svg width="31" height="31" viewBox="0 0 31 31" fill="none" xmlns="http://www.w3.org/2000/svg">
<rect width="30.9994" height="30.9994" rx="6" fill="#503217"/>
<g clip-path="url(#clip0_1678_86)">
<path d="M22.3754 12.4185C22.3423 11.6682 22.221 11.1523 22.0472 10.7053C21.8678 10.2308 21.592 9.80603 21.2305 9.45289C20.8774 9.09425 20.4498 8.81558 19.9808 8.63906C19.5312 8.46524 19.018 8.3439 18.2677 8.31082C17.5117 8.27493 17.2717 8.26663 15.3544 8.26663C13.4371 8.26663 13.1971 8.27493 12.444 8.30801C11.6936 8.3411 11.1777 8.46255 10.7309 8.63626C10.2563 8.81558 9.83146 9.09145 9.47832 9.45289C9.11969 9.80603 8.84112 10.2336 8.6645 10.7026C8.49067 11.1523 8.36933 11.6654 8.33625 12.4157C8.30036 13.1717 8.29207 13.4117 8.29207 15.329C8.29207 17.2463 8.30036 17.4863 8.33345 18.2395C8.36653 18.9898 8.48798 19.5057 8.6618 19.9527C8.84112 20.4272 9.11969 20.852 9.47832 21.2051C9.83146 21.5637 10.2591 21.8424 10.728 22.0189C11.1777 22.1927 11.6908 22.3141 12.4413 22.3472C13.1943 22.3804 13.4344 22.3885 15.3517 22.3885C17.2691 22.3885 17.509 22.3804 18.2622 22.3472C19.0125 22.3141 19.5284 22.1927 19.9753 22.0189C20.9244 21.652 21.6747 20.9016 22.0417 19.9527C22.2154 19.503 22.3368 18.9898 22.3699 18.2395C22.403 17.4863 22.4113 17.2463 22.4113 15.329C22.4113 13.4117 22.4085 13.1717 22.3754 12.4185ZM21.1037 18.1843C21.0733 18.874 20.9575 19.2464 20.8609 19.4947C20.6236 20.1099 20.1353 20.5982 19.5201 20.8355C19.2718 20.932 18.8967 21.0479 18.2097 21.0782C17.4649 21.1113 17.2415 21.1195 15.3572 21.1195C13.473 21.1195 13.2468 21.1113 12.5046 21.0782C11.8149 21.0479 11.4425 20.932 11.1942 20.8355C10.8881 20.7223 10.6094 20.543 10.3832 20.3085C10.1487 20.0795 9.9694 19.8036 9.85625 19.4975C9.75969 19.2492 9.64385 18.874 9.61356 18.1871C9.58037 17.4422 9.57218 17.2187 9.57218 15.3345C9.57218 13.4503 9.58037 13.2241 9.61356 12.482C9.64385 11.7923 9.75969 11.4199 9.85625 11.1716C9.9694 10.8653 10.1487 10.5868 10.386 10.3605C10.6149 10.126 10.8908 9.94666 11.197 9.83362C11.4453 9.73706 11.8206 9.62121 12.5074 9.59083C13.2523 9.55774 13.4758 9.54944 15.3599 9.54944C17.247 9.54944 17.4704 9.55774 18.2125 9.59083C18.9022 9.62121 19.2746 9.73706 19.5229 9.83362C19.8291 9.94666 20.1077 10.126 20.3339 10.3605C20.5684 10.5895 20.7477 10.8653 20.8609 11.1716C20.9575 11.4199 21.0733 11.795 21.1037 12.482C21.1368 13.2269 21.1451 13.4503 21.1451 15.3345C21.1451 17.2187 21.1368 17.4394 21.1037 18.1843Z" fill="#F2F2F2"/>
<path d="M15.3527 11.701C13.3499 11.701 11.725 13.3259 11.725 15.3288C11.725 17.3317 13.3499 18.9565 15.3527 18.9565C17.3556 18.9565 18.9805 17.3317 18.9805 15.3288C18.9805 13.3259 17.3556 11.701 15.3527 11.701ZM15.3527 17.682C14.0534 17.682 12.9995 16.6282 12.9995 15.3288C12.9995 14.0294 14.0534 12.9756 15.3527 12.9756C16.6521 12.9756 17.7059 14.0294 17.7059 15.3288C17.7059 16.6282 16.6521 17.682 15.3527 17.682Z" fill="#F2F2F2"/>
<path d="M19.8459 11.9381C19.8459 12.4058 19.4667 12.785 18.9989 12.785C18.5312 12.785 18.152 12.4058 18.152 11.9381C18.152 11.4703 18.5312 11.0912 18.9989 11.0912C19.4667 11.0912 19.8459 11.4703 19.8459 11.9381Z" fill="#F2F2F2"/>
</g>
<defs>
<clipPath id="clip0_1678_86">
<rect width="13.8275" height="13.8275" fill="white" transform="translate(8.26613 8.26663) scale(1.0213)"/>
</clipPath>
</defs>
</svg>
