<svg width="82" height="95" viewBox="0 0 82 95" fill="none" xmlns="http://www.w3.org/2000/svg">
<g opacity="0.15" clip-path="url(#clip0_891_122)">
<path d="M44.024 95.0005C40.3746 95.0005 38.5499 95.0005 34.9006 93.1802C29.4266 91.3608 25.7772 85.9008 23.9525 82.2612C22.1278 76.8015 22.1278 71.3418 23.9525 65.8821L42.1991 24.0246C47.6731 13.1053 58.6212 9.46535 69.5691 13.1051C75.0431 14.9251 78.6925 20.3848 80.5172 24.0246C82.3419 29.4843 82.3419 34.9439 80.5172 40.4035L62.2706 82.2612C60.4459 89.5405 53.1472 95.0005 44.024 95.0005ZM64.0952 14.9251C56.7966 14.9251 51.3225 18.5649 47.6732 25.8445L29.4265 67.702C27.6018 71.3418 27.6018 76.8016 29.4265 80.4414C31.2512 84.0811 34.9005 87.7211 38.5499 89.5405C47.6732 93.1802 56.7966 89.5405 62.2706 80.4414L80.5172 38.5837C82.3419 34.9439 82.3419 29.4843 80.5172 25.8445C78.6925 22.2047 75.0433 18.5649 71.3939 16.745C67.7446 14.9251 65.9198 14.9251 64.0952 14.9251Z" fill="#8F7D6A"/>
<path d="M69.566 65.8815L33.0726 49.5024C33.0726 49.5024 33.0727 49.5024 31.248 47.6825V45.8627L34.8975 36.7632C34.8975 34.9434 36.7221 34.9434 36.7221 34.9434L71.3908 51.3225C71.3908 51.3225 71.3907 51.3224 73.2154 53.1423C75.0401 54.9622 73.2154 54.9622 73.2154 54.9622L69.566 65.8815ZM36.7221 47.6825L67.7414 62.2418L69.566 56.7821L38.5467 42.223L36.7221 47.6825Z" fill="#8F7D6A"/>
<path d="M20.305 85.9001C13.0063 82.2601 7.53235 76.8005 7.53235 69.521L0.233658 24.0236C-1.59101 13.1042 7.53232 2.18478 18.4803 0.364884C29.4283 -1.45501 40.3762 7.64447 42.2009 18.5638C42.2009 20.3837 42.201 20.3837 40.3763 20.3837C38.5516 20.3837 38.5516 20.3837 38.5516 18.5638C36.7269 9.46435 27.6037 2.18472 18.4803 4.00462C9.35697 5.82451 2.05827 14.9241 3.88294 24.0236L11.1816 69.521C11.1816 74.9807 16.6556 80.4403 22.1296 82.2602C22.1296 82.2602 22.1297 84.0801 20.305 85.9001C22.1297 85.9001 22.1297 85.9001 20.305 85.9001Z" fill="#8F7D6A"/>
<path d="M5.70397 53.1417C3.8793 53.1417 3.87933 53.1418 3.87933 51.3219L2.05469 42.2224V40.4024C2.05469 40.4024 2.05466 40.4024 3.87933 40.4024L31.2493 36.7627C33.074 36.7627 33.0739 36.7626 33.0739 38.5825C33.0739 40.4024 33.074 40.4024 31.2493 40.4024L5.70397 44.0422V49.5019L23.9507 47.682C25.7752 47.682 25.7754 47.682 25.7754 49.5019C25.7754 51.3218 25.7752 51.3219 23.9507 51.3219L5.70397 53.1417Z" fill="#8F7D6A"/>
<path d="M44.1372 94.8678C40.4879 94.8678 38.6632 94.8678 35.0139 93.0476C29.5399 91.2281 25.8904 85.7682 24.0658 82.1284C22.2411 76.6687 22.2411 71.209 24.0658 65.7493L42.3124 23.8918C47.7864 12.9724 58.7344 9.33255 69.6824 12.9723C75.1564 14.7922 78.8058 20.252 80.6305 23.8918C82.4552 29.3515 82.4552 34.811 80.6305 40.2707L62.3839 82.1284C60.5592 89.4079 53.2605 94.8678 44.1372 94.8678ZM64.2085 14.7923C56.9098 14.7923 51.4358 18.4321 47.7865 25.7117L29.5398 67.5692C27.7151 71.2089 27.7151 76.6687 29.5398 80.3085C31.3645 83.9483 35.0138 87.5885 38.6631 89.4079C47.7865 93.0476 56.9098 89.4079 62.3839 80.3085L80.6305 38.4509C82.4552 34.811 82.4552 29.3514 80.6305 25.7117C78.8058 22.0719 75.1566 18.4321 71.5072 16.6122C67.8579 14.7922 66.0331 14.7923 64.2085 14.7923Z" fill="#8F7D6A"/>
<path d="M69.6812 65.7497L33.1879 49.3706C33.1879 49.3706 33.188 49.3706 31.3633 47.5508V45.7309L35.0127 36.6315C35.0127 34.8115 36.8373 34.8115 36.8373 34.8115L71.506 51.1906C71.506 51.1906 71.506 51.1906 73.3306 53.0105C75.1553 54.8304 73.3306 54.8304 73.3306 54.8304L69.6812 65.7497ZM36.8373 47.5508L67.8566 62.1099L69.6812 56.6502L38.662 42.0912L36.8373 47.5508Z" fill="#8F7D6A"/>
<path d="M20.4182 85.768C13.1196 82.1283 7.64564 76.6687 7.64564 69.3891L0.346941 23.8917C-1.47773 12.9723 7.6456 2.05294 18.5936 0.233048C29.5416 -1.58685 40.4895 7.51263 42.3142 18.432C42.3142 20.2519 42.3142 20.2519 40.4895 20.2519C38.6649 20.2519 38.6649 20.2519 38.6649 18.432C36.8402 9.33256 27.7169 2.05289 18.5936 3.87279C9.4703 5.69268 2.17155 14.7923 3.99622 23.8917L11.2949 69.3891C11.2949 74.8488 16.7689 80.3084 22.2429 82.1283C22.2429 82.1283 22.2429 83.9482 20.4182 85.768C22.2429 85.768 22.2429 85.768 20.4182 85.768Z" fill="#8F7D6A"/>
<path d="M5.8192 53.01C3.99453 53.01 3.99456 53.01 3.99456 51.19L2.16992 42.0906V40.2705C2.16992 40.2705 2.1699 40.2705 3.99456 40.2705L31.3645 36.6309C33.1892 36.6309 33.1892 36.6309 33.1892 38.4507C33.1892 40.2706 33.1892 40.2705 31.3645 40.2705L5.8192 43.9105V49.3701L24.0659 47.5502C25.8905 47.5502 25.8906 47.5502 25.8906 49.3701C25.8906 51.1899 25.8905 51.19 24.0659 51.19L5.8192 53.01Z" fill="#8F7D6A"/>
</g>
<defs>
<clipPath id="clip0_891_122">
<rect width="82" height="95" fill="white"/>
</clipPath>
</defs>
</svg>
