<svg width="87" height="83" viewBox="0 0 87 83" fill="none" xmlns="http://www.w3.org/2000/svg">
<path d="M2.35358 13.6746C4.65081 8.45385 9.15658 5.31022 14.2374 3.46926C19.4731 1.57224 25.4191 1.01736 30.4903 1.00313C37.9366 0.981458 46.5494 1.24872 54.8953 2.66658C63.2334 4.08314 71.3791 6.66022 77.8444 11.3083L78.5392 11.8225C81.9329 14.4089 84.1143 17.2436 85.1932 20.4878C86.3409 23.9388 86.1991 27.7284 85.1333 31.9677L85.1335 31.9691C83.19 39.6835 79.1941 46.7283 75.0663 53.2567L75.0676 53.2565C68.7786 63.278 60.5327 71.9246 50.8011 78.7025L50.7972 78.7045C46.9063 81.3882 43.2655 82.314 39.8448 81.9052C36.4476 81.4992 33.4023 79.7926 30.6528 77.4673C17.4411 66.2965 8.39852 48.3782 3.33243 32.3109L2.85417 30.7612C1.26902 25.549 -0.00940061 19.52 2.13835 14.1868L2.35358 13.6746Z" stroke="#EBE9E0" stroke-width="2"/>
</svg>
